<svg width="475" height="271" viewBox="0 0 475 271" fill="none" xmlns="http://www.w3.org/2000/svg">
<rect width="475" height="271" fill="white"/>
<path d="M144.136 213.312L149.256 212.928V184.704L144.328 183.616V180.736L152.456 179.712H152.584L153.8 180.736V181.76L153.672 186.624H153.8C153.885 186.539 154.44 185.899 155.464 184.704C156.531 183.467 158.088 182.293 160.136 181.184C162.227 180.075 164.317 179.52 166.408 179.52C167.091 179.52 167.731 179.605 168.328 179.776V185.408C168.157 185.28 167.773 185.152 167.176 185.024C166.621 184.896 166.024 184.832 165.384 184.832C162.952 184.832 160.883 185.195 159.176 185.92C157.469 186.645 155.891 187.541 154.44 188.608V212.864L162.952 213.376V216H144.136V213.312Z" fill="black"/>
<path d="M302.128 192.944C302.597 193.669 303.579 194.309 305.072 194.864C306.565 195.419 308.165 195.696 309.872 195.696C315.077 195.696 317.68 193.776 317.68 189.936C317.68 188.187 316.955 186.779 315.504 185.712C314.053 184.603 311.579 183.387 308.08 182.064C304.624 180.827 302.107 179.355 300.528 177.648C298.949 175.941 298.16 173.659 298.16 170.8C298.16 168.965 298.715 167.365 299.824 166C300.976 164.635 302.491 163.589 304.368 162.864C306.288 162.096 308.357 161.712 310.576 161.712C312.752 161.712 314.565 161.904 316.016 162.288C317.509 162.672 318.981 163.141 320.432 163.696V171.312H317.296L316.144 166.64C315.845 166.085 315.077 165.616 313.84 165.232C312.645 164.848 311.323 164.656 309.872 164.656C307.824 164.656 306.16 165.125 304.88 166.064C303.6 166.96 302.96 168.176 302.96 169.712C302.96 171.077 303.28 172.208 303.92 173.104C304.56 174 305.349 174.725 306.288 175.28C307.227 175.792 308.528 176.389 310.192 177.072L311.408 177.584C313.84 178.523 315.803 179.419 317.296 180.272C318.789 181.083 320.027 182.171 321.008 183.536C321.989 184.859 322.48 186.523 322.48 188.528C322.48 191.685 321.264 194.181 318.832 196.016C316.443 197.808 313.243 198.704 309.232 198.704C307.397 198.704 305.307 198.405 302.96 197.808C300.613 197.211 298.864 196.613 297.712 196.016V187.952H301.168L302.128 192.944Z" fill="black"/>
<path d="M214.192 233.576C213.083 233.576 212.272 233.384 211.76 233C211.248 232.616 210.992 231.912 210.992 230.888V228.392C209.413 229.8 207.557 231.037 205.424 232.104C203.291 233.171 201.157 233.704 199.024 233.704C195.141 233.704 192.368 232.616 190.704 230.44C189.083 228.264 188.272 224.723 188.272 219.816V201L184.496 199.912V197.544L192.24 196.712H192.304L193.456 197.48V219.048C193.456 221.736 193.648 223.848 194.032 225.384C194.416 226.877 195.12 227.987 196.144 228.712C197.168 229.437 198.661 229.8 200.624 229.8C202.501 229.8 204.293 229.395 206 228.584C207.707 227.773 209.179 226.813 210.416 225.704V201L205.552 199.912V197.544L214.064 196.712H214.128L215.6 197.48V230.184H219.568L219.504 232.616C219.291 232.659 218.672 232.829 217.648 233.128C216.624 233.427 215.472 233.576 214.192 233.576Z" fill="black"/>
<path d="M245.128 178.616L239.688 178.04V175.672L249.032 174.584H249.096L250.312 175.416V223.8L256.328 224.248V227H239.496V224.248L245.128 223.736V178.616Z" fill="black"/>
<path d="M278.432 234.704C273.483 234.704 269.664 233.019 266.976 229.648C264.331 226.235 263.008 221.712 263.008 216.08C263.008 212.453 263.712 209.232 265.12 206.416C266.528 203.6 268.469 201.424 270.944 199.888C273.461 198.309 276.277 197.52 279.392 197.52C283.189 197.52 286.133 198.608 288.224 200.784C290.357 202.96 291.509 206.096 291.68 210.192C291.68 212.837 291.552 214.715 291.296 215.824H268.512C268.512 220.304 269.515 223.973 271.52 226.832C273.568 229.648 276.427 231.056 280.096 231.056C281.888 231.056 283.723 230.736 285.6 230.096C287.477 229.456 288.928 228.688 289.952 227.792L290.976 230.16C289.739 231.44 287.925 232.528 285.536 233.424C283.189 234.277 280.821 234.704 278.432 234.704ZM285.92 212.816C286.048 211.92 286.112 210.981 286.112 210C286.069 207.184 285.387 204.944 284.064 203.28C282.784 201.616 280.8 200.784 278.112 200.784C272.267 200.784 269.088 204.795 268.576 212.816H285.92Z" fill="black"/>
<path fill-rule="evenodd" clip-rule="evenodd" d="M188.639 9.59308L193.894 13.6844L212.894 23.5L237.394 25.6844L263.552 25.6844L280.894 13.6844L286.764 9.11417L290.764 6V11.0693V16L286.894 30L292.196 50.1396L292.866 52.6844L292.874 52.7152L293.788 56.1844L292.874 55.5338L288.874 52.6844V53.2329V57.5955V71.8536V73.824V74.8232V82.1844L287.986 80.07L285.095 73.1844L284.874 74.4872L283.849 80.5479L280.223 101.971L279.426 106.684L278.814 106.118L275.918 103.437L275.646 103.184L274.12 107.223L269.565 119.273L268.087 123.184L264.776 120.63L263.552 119.684L253.5 123.184L248.5 133L237.394 135L228 133L220 123.184L211.236 119.684L210.011 120.63L206.701 123.184L205.222 119.273L200.668 107.223L199.142 103.184L198.869 103.437L195.974 106.118L195.362 106.684L194.565 101.971L190.939 80.5479L189.913 74.4872L189.693 73.1844L186.801 80.07L185.913 82.1844V74.8233V73.824V71.8536V57.5955V54.0798V52.6844L181.913 55.5338L181 56.1844L181.913 53.4332L182.162 52.6844L183.135 49.7522L189.693 30L185.913 18L184.933 11.7777L184.024 6L188.639 9.59308ZM283.351 16.8407L286.764 14.1835V15.4573L283.038 28.9342L282.751 29.9746L283.026 31.0184L287.105 46.513L284.874 44.924V52.6844V62.3286L283.449 58.9354L281.151 72.517L276.716 98.7235L274.005 96.2129L271.904 101.77L266.255 116.718L265.995 116.518L264.281 115.195L262.236 115.907L252.185 119.407L250.666 119.936L249.936 121.369L245.837 129.415L237.458 130.924L230.211 129.381L223.101 120.657L222.446 119.854L221.484 119.47L212.72 115.97L210.6 115.123L208.792 116.518L208.533 116.718L202.883 101.77L200.783 96.2129L198.072 98.7235L193.637 72.517L191.338 58.9353L189.913 62.3286V52.6844V44.924L188.656 45.82L193.489 31.2603L193.897 30.0324L193.508 28.7984L189.818 17.083L189.549 15.3708L191.437 16.8407L191.729 17.0682L192.058 17.2382L211.058 27.0538L211.756 27.4144L212.539 27.4842L237.039 29.6686L237.216 29.6844H237.394L263.552 29.6844H264.801L265.828 28.9737L283.17 16.9737L283.262 16.9097L283.351 16.8407ZM212.824 76.1337L217.42 77.3652L227.313 80.016L219.241 73.712L217.039 71.9927L213.187 68.984L212.939 73.8658L212.824 76.1337ZM259.08 77.3652L263.676 76.1337L263.561 73.8658L263.313 68.984L259.461 71.9926L257.259 73.712L249.187 80.016L259.08 77.3652ZM229.851 115.332L235.687 116.694L237 117L237.726 116.912L244.05 116.145L253.5 115L245.406 120.01L243 121.5L237.754 120.938L237.474 120.908L236.122 120.763L235.016 120.645L229 120L227.908 118.986L222 113.5L229.851 115.332Z" fill="black"/>
<path d="M228 116.5L227 114.5H229.5L228 116.5Z" fill="white"/>
<path d="M245 117L244 115H246.5L245 117Z" fill="white"/>
<path d="M236.5 119L237.5 121H235L236.5 119Z" fill="white"/>
</svg>
