<svg width="475" height="271" viewBox="0 0 475 271" fill="none" xmlns="http://www.w3.org/2000/svg">
<rect width="475" height="271" fill="white"/>
<path fill-rule="evenodd" clip-rule="evenodd" d="M194.894 13.6844L189.639 9.59308L185.024 6L185.933 11.7777L186.913 18L190.693 30L184.135 49.7522L183.162 52.6844L182.913 53.4332L182 56.1844L182.913 55.5338L186.913 52.6844V54.0798V57.5955V71.8536V73.824V74.8233V82.1844L187.801 80.07L190.693 73.1844L190.913 74.4872L191.939 80.5479L195.565 101.971L196.362 106.684L196.974 106.118L199.869 103.437L200.142 103.184L201.668 107.223L206.222 119.273L207.701 123.184L211.011 120.63L212.236 119.684L221 123.184L229 133L238.394 135L249.5 133L254.5 123.184L264.552 119.684L265.776 120.63L269.087 123.184L270.565 119.273L275.12 107.223L276.646 103.184L276.918 103.437L279.814 106.118L280.426 106.684L281.223 101.971L284.849 80.5479L285.874 74.4872L286.095 73.1844L288.986 80.07L289.874 82.1844V74.8232V73.824V71.8536V57.5955V53.2329V52.6844L293.874 55.5338L294.788 56.1844L293.874 52.7152L293.866 52.6844L293.196 50.1396L287.894 30L291.764 16V11.0693V6L287.764 9.11417L281.894 13.6844L264.552 25.6844L238.394 25.6844L213.894 23.5L194.894 13.6844ZM287.764 14.1835L284.351 16.8407L284.262 16.9097L284.17 16.9737L266.828 28.9737L265.801 29.6844H264.552L238.394 29.6844H238.216L238.039 29.6686L213.539 27.4842L212.756 27.4144L212.058 27.0538L193.058 17.2382L192.729 17.0682L192.437 16.8407L190.549 15.3708L190.818 17.083L194.508 28.7984L194.897 30.0324L194.489 31.2603L189.656 45.82L190.913 44.924V52.6844V62.3286L192.338 58.9353L194.637 72.517L199.072 98.7235L201.783 96.2129L203.883 101.77L209.533 116.718L209.792 116.518L211.6 115.123L213.72 115.97L222.484 119.47L223.446 119.854L224.101 120.657L231.211 129.381L238.458 130.924L246.837 129.415L250.936 121.369L251.666 119.936L253.185 119.407L263.236 115.907L265.281 115.195L266.995 116.518L267.255 116.718L272.904 101.77L275.005 96.2129L277.716 98.7235L282.151 72.517L284.449 58.9354L285.874 62.3286V52.6844V44.924L288.105 46.513L284.026 31.0184L283.751 29.9746L284.038 28.9342L287.764 15.4573V14.1835ZM218.42 77.3652L213.824 76.1337L213.939 73.8658L214.187 68.984L218.039 71.9927L220.241 73.712L228.313 80.016L218.42 77.3652ZM264.676 76.1337L260.08 77.3652L250.187 80.016L258.259 73.712L260.461 71.9926L264.313 68.984L264.561 73.8658L264.676 76.1337Z" fill="black"/>
<path d="M144.136 213.312L149.256 212.928V184.704L144.328 183.616V180.736L152.456 179.712H152.584L153.8 180.736V181.76L153.672 186.624H153.8C153.885 186.539 154.44 185.899 155.464 184.704C156.531 183.467 158.088 182.293 160.136 181.184C162.227 180.075 164.317 179.52 166.408 179.52C167.091 179.52 167.731 179.605 168.328 179.776V185.408C168.157 185.28 167.773 185.152 167.176 185.024C166.621 184.896 166.024 184.832 165.384 184.832C162.952 184.832 160.883 185.195 159.176 185.92C157.469 186.645 155.891 187.541 154.44 188.608V212.864L162.952 213.376V216H144.136V213.312Z" fill="black"/>
<path d="M302.128 192.944C302.597 193.669 303.579 194.309 305.072 194.864C306.565 195.419 308.165 195.696 309.872 195.696C315.077 195.696 317.68 193.776 317.68 189.936C317.68 188.187 316.955 186.779 315.504 185.712C314.053 184.603 311.579 183.387 308.08 182.064C304.624 180.827 302.107 179.355 300.528 177.648C298.949 175.941 298.16 173.659 298.16 170.8C298.16 168.965 298.715 167.365 299.824 166C300.976 164.635 302.491 163.589 304.368 162.864C306.288 162.096 308.357 161.712 310.576 161.712C312.752 161.712 314.565 161.904 316.016 162.288C317.509 162.672 318.981 163.141 320.432 163.696V171.312H317.296L316.144 166.64C315.845 166.085 315.077 165.616 313.84 165.232C312.645 164.848 311.323 164.656 309.872 164.656C307.824 164.656 306.16 165.125 304.88 166.064C303.6 166.96 302.96 168.176 302.96 169.712C302.96 171.077 303.28 172.208 303.92 173.104C304.56 174 305.349 174.725 306.288 175.28C307.227 175.792 308.528 176.389 310.192 177.072L311.408 177.584C313.84 178.523 315.803 179.419 317.296 180.272C318.789 181.083 320.027 182.171 321.008 183.536C321.989 184.859 322.48 186.523 322.48 188.528C322.48 191.685 321.264 194.181 318.832 196.016C316.443 197.808 313.243 198.704 309.232 198.704C307.397 198.704 305.307 198.405 302.96 197.808C300.613 197.211 298.864 196.613 297.712 196.016V187.952H301.168L302.128 192.944Z" fill="black"/>
<path d="M214.192 233.576C213.083 233.576 212.272 233.384 211.76 233C211.248 232.616 210.992 231.912 210.992 230.888V228.392C209.413 229.8 207.557 231.037 205.424 232.104C203.291 233.171 201.157 233.704 199.024 233.704C195.141 233.704 192.368 232.616 190.704 230.44C189.083 228.264 188.272 224.723 188.272 219.816V201L184.496 199.912V197.544L192.24 196.712H192.304L193.456 197.48V219.048C193.456 221.736 193.648 223.848 194.032 225.384C194.416 226.877 195.12 227.987 196.144 228.712C197.168 229.437 198.661 229.8 200.624 229.8C202.501 229.8 204.293 229.395 206 228.584C207.707 227.773 209.179 226.813 210.416 225.704V201L205.552 199.912V197.544L214.064 196.712H214.128L215.6 197.48V230.184H219.568L219.504 232.616C219.291 232.659 218.672 232.829 217.648 233.128C216.624 233.427 215.472 233.576 214.192 233.576Z" fill="black"/>
<path d="M245.128 178.616L239.688 178.04V175.672L249.032 174.584H249.096L250.312 175.416V223.8L256.328 224.248V227H239.496V224.248L245.128 223.736V178.616Z" fill="black"/>
<path d="M278.432 234.704C273.483 234.704 269.664 233.019 266.976 229.648C264.331 226.235 263.008 221.712 263.008 216.08C263.008 212.453 263.712 209.232 265.12 206.416C266.528 203.6 268.469 201.424 270.944 199.888C273.461 198.309 276.277 197.52 279.392 197.52C283.189 197.52 286.133 198.608 288.224 200.784C290.357 202.96 291.509 206.096 291.68 210.192C291.68 212.837 291.552 214.715 291.296 215.824H268.512C268.512 220.304 269.515 223.973 271.52 226.832C273.568 229.648 276.427 231.056 280.096 231.056C281.888 231.056 283.723 230.736 285.6 230.096C287.477 229.456 288.928 228.688 289.952 227.792L290.976 230.16C289.739 231.44 287.925 232.528 285.536 233.424C283.189 234.277 280.821 234.704 278.432 234.704ZM285.92 212.816C286.048 211.92 286.112 210.981 286.112 210C286.069 207.184 285.387 204.944 284.064 203.28C282.784 201.616 280.8 200.784 278.112 200.784C272.267 200.784 269.088 204.795 268.576 212.816H285.92Z" fill="black"/>
</svg>
