<svg width="475" height="271" viewBox="0 0 475 271" fill="none" xmlns="http://www.w3.org/2000/svg">
<rect width="475" height="271" fill="white"/>
<path d="M71.808 163.48H85.696V166.104L80.576 166.872L86.272 186.776L88.384 195.672L90.496 186.712L96.896 163.48H102.208L108.608 186.712L110.656 195.736L112.96 186.776L118.592 166.936L113.664 166.104V163.48H126.208V166.104L122.688 166.936L112.704 199.512H107.52L100.544 175.704L98.752 167.64L97.216 175.704L90.496 199.512H85.44L75.2 166.872L71.808 166.104V163.48Z" fill="black"/>
<path d="M246.808 188.48H260.696V191.104L255.576 191.872L261.272 211.776L263.384 220.672L265.496 211.712L271.896 188.48H277.208L283.608 211.712L285.656 220.736L287.96 211.776L293.592 191.936L288.664 191.104V188.48H301.208V191.104L297.688 191.936L287.704 224.512H282.52L275.544 200.704L273.752 192.64L272.216 200.704L265.496 224.512H260.44L250.2 191.872L246.808 191.104V188.48Z" fill="black"/>
<path d="M146.432 216.704C141.483 216.704 137.664 215.019 134.976 211.648C132.331 208.235 131.008 203.712 131.008 198.08C131.008 194.453 131.712 191.232 133.12 188.416C134.528 185.6 136.469 183.424 138.944 181.888C141.461 180.309 144.277 179.52 147.392 179.52C151.189 179.52 154.133 180.608 156.224 182.784C158.357 184.96 159.509 188.096 159.68 192.192C159.68 194.837 159.552 196.715 159.296 197.824H136.512C136.512 202.304 137.515 205.973 139.52 208.832C141.568 211.648 144.427 213.056 148.096 213.056C149.888 213.056 151.723 212.736 153.6 212.096C155.477 211.456 156.928 210.688 157.952 209.792L158.976 212.16C157.739 213.44 155.925 214.528 153.536 215.424C151.189 216.277 148.821 216.704 146.432 216.704ZM153.92 194.816C154.048 193.92 154.112 192.981 154.112 192C154.069 189.184 153.387 186.944 152.064 185.28C150.784 183.616 148.8 182.784 146.112 182.784C140.267 182.784 137.088 186.795 136.576 194.816H153.92Z" fill="black"/>
<path d="M171.136 207.312L176.256 206.928V178.704L171.328 177.616V174.736L179.456 173.712H179.584L180.8 174.736V175.76L180.672 180.624H180.8C180.885 180.539 181.44 179.899 182.464 178.704C183.531 177.467 185.088 176.293 187.136 175.184C189.227 174.075 191.317 173.52 193.408 173.52C194.091 173.52 194.731 173.605 195.328 173.776V179.408C195.157 179.28 194.773 179.152 194.176 179.024C193.621 178.896 193.024 178.832 192.384 178.832C189.952 178.832 187.883 179.195 186.176 179.92C184.469 180.645 182.891 181.541 181.44 182.608V206.864L189.952 207.376V210H171.136V207.312Z" fill="black"/>
<path d="M224.432 221.704C219.483 221.704 215.664 220.019 212.976 216.648C210.331 213.235 209.008 208.712 209.008 203.08C209.008 199.453 209.712 196.232 211.12 193.416C212.528 190.6 214.469 188.424 216.944 186.888C219.461 185.309 222.277 184.52 225.392 184.52C229.189 184.52 232.133 185.608 234.224 187.784C236.357 189.96 237.509 193.096 237.68 197.192C237.68 199.837 237.552 201.715 237.296 202.824H214.512C214.512 207.304 215.515 210.973 217.52 213.832C219.568 216.648 222.427 218.056 226.096 218.056C227.888 218.056 229.723 217.736 231.6 217.096C233.477 216.456 234.928 215.688 235.952 214.792L236.976 217.16C235.739 218.44 233.925 219.528 231.536 220.424C229.189 221.277 226.821 221.704 224.432 221.704ZM231.92 199.816C232.048 198.92 232.112 197.981 232.112 197C232.069 194.184 231.387 191.944 230.064 190.28C228.784 188.616 226.8 187.784 224.112 187.784C218.267 187.784 215.088 191.795 214.576 199.816H231.92Z" fill="black"/>
<path d="M311.88 190.016C311.88 186.304 312.648 183.04 314.184 180.224C315.763 177.408 317.811 175.253 320.328 173.76C322.888 172.267 325.555 171.52 328.328 171.52C333.704 171.52 337.672 173.269 340.232 176.768C342.835 180.267 344.136 184.747 344.136 190.208C344.136 193.92 343.347 197.184 341.768 200C340.232 202.816 338.184 204.971 335.624 206.464C333.107 207.957 330.461 208.704 327.688 208.704C322.312 208.704 318.323 206.955 315.72 203.456C313.16 199.957 311.88 195.477 311.88 190.016ZM328.008 205.376C331.293 205.376 333.832 204.117 335.624 201.6C337.416 199.083 338.312 195.413 338.312 190.592C338.312 185.984 337.48 182.208 335.816 179.264C334.152 176.32 331.571 174.848 328.072 174.848C324.787 174.848 322.227 176.107 320.392 178.624C318.6 181.141 317.704 184.811 317.704 189.632C317.704 194.283 318.536 198.08 320.2 201.024C321.907 203.925 324.509 205.376 328.008 205.376Z" fill="black"/>
<path d="M356.128 183.616L350.688 183.04V180.672L360.032 179.584H360.096L361.312 180.416V228.8L367.328 229.248V232H350.496V229.248L356.128 228.736V183.616Z" fill="black"/>
<path d="M384.448 165.32H377.984V162.76L384.448 161.544V158.408C384.448 155.848 385.109 153.501 386.432 151.368C387.755 149.192 389.461 147.464 391.552 146.184C393.685 144.904 395.904 144.264 398.208 144.264C399.573 144.264 400.768 144.435 401.792 144.776V150.024C401.451 149.768 400.747 149.512 399.68 149.256C398.656 149 397.461 148.872 396.096 148.872C393.835 148.872 392.192 149.469 391.168 150.664C390.144 151.859 389.632 153.885 389.632 156.744V161.544H398.912V165.32H389.632V193.8L396.928 194.248V197H378.816V194.248L384.448 193.736V165.32Z" fill="black"/>
<path fill-rule="evenodd" clip-rule="evenodd" d="M189.639 8.59308L194.894 12.6844L213.894 22.5L238.394 24.6844L264.552 24.6844L281.894 12.6844L287.764 8.11417L291.764 5V10.0693V15L287.894 29L293.196 49.1396L293.866 51.6844L293.874 51.7152L294.788 55.1844L293.874 54.5338L289.874 51.6844V52.2329V56.5955V70.8536V72.824V73.8232V81.1844L288.986 79.07L286.095 72.1844L285.874 73.4872L284.849 79.5479L281.223 100.971L280.426 105.684L279.814 105.118L276.918 102.437L276.646 102.184L275.12 106.223L270.565 118.273L269.087 122.184L265.776 119.63L264.552 118.684L254.5 122.184L249.5 132L238.394 134L229 132L221 122.184L212.236 118.684L211.011 119.63L207.701 122.184L206.222 118.273L201.668 106.223L200.142 102.184L199.869 102.437L196.974 105.118L196.362 105.684L195.565 100.971L191.939 79.5479L190.913 73.4872L190.693 72.1844L187.801 79.07L186.913 81.1844V73.8233V72.824V70.8536V56.5955V53.0798V51.6844L182.913 54.5338L182 55.1844L182.913 52.4332L183.162 51.6844L184.135 48.7522L190.693 29L186.913 17L185.933 10.7777L185.024 5L189.639 8.59308ZM284.351 15.8407L287.764 13.1835V14.4573L284.038 27.9342L283.751 28.9746L284.026 30.0184L288.105 45.513L285.874 43.924V51.6844V61.3286L284.449 57.9354L282.151 71.517L277.716 97.7235L275.005 95.2129L272.904 100.77L267.255 115.718L266.995 115.518L265.281 114.195L263.236 114.907L253.185 118.407L251.666 118.936L250.936 120.369L246.837 128.415L238.458 129.924L231.211 128.381L224.101 119.657L223.446 118.854L222.484 118.47L213.72 114.97L211.6 114.123L209.792 115.518L209.533 115.718L203.883 100.77L201.783 95.2129L199.072 97.7235L194.637 71.517L192.338 57.9353L190.913 61.3286V51.6844V43.924L189.656 44.82L194.489 30.2603L194.897 29.0324L194.508 27.7984L190.818 16.083L190.549 14.3708L192.437 15.8407L192.729 16.0682L193.058 16.2382L212.058 26.0538L212.756 26.4144L213.539 26.4842L238.039 28.6686L238.216 28.6844H238.394L264.552 28.6844H265.801L266.828 27.9737L284.17 15.9737L284.262 15.9097L284.351 15.8407ZM213.824 75.1337L218.42 76.3652L228.313 79.016L220.241 72.712L218.039 70.9927L214.187 67.984L213.939 72.8658L213.824 75.1337ZM260.08 76.3652L264.676 75.1337L264.561 72.8658L264.313 67.984L260.461 70.9926L258.259 72.712L250.187 79.016L260.08 76.3652ZM230.851 114.332L236.687 115.694L238 116L238.726 115.912L245.05 115.145L254.5 114L246.406 119.01L244 120.5L238.754 119.938L238.474 119.908L237.122 119.763L236.016 119.645L230 119L228.908 117.986L223 112.5L230.851 114.332Z" fill="black"/>
<path d="M229 115.5L228 113.5H230.5L229 115.5Z" fill="white"/>
<path d="M246 116L245 114H247.5L246 116Z" fill="white"/>
<path d="M237.5 118L238.5 120H236L237.5 118Z" fill="white"/>
</svg>
