<svg width="475" height="271" viewBox="0 0 475 271" fill="none" xmlns="http://www.w3.org/2000/svg">
<rect width="475" height="271" fill="white"/>
<path fill-rule="evenodd" clip-rule="evenodd" d="M194.894 13.6844L189.639 9.59308L185.024 6L185.933 11.7777L186.913 18L190.693 30L184.135 49.7522L183.162 52.6844L182.913 53.4332L182 56.1844L182.913 55.5338L186.913 52.6844V54.0798V57.5955V71.8536V73.824V74.8233V82.1844L187.801 80.07L190.693 73.1844L190.913 74.4872L191.939 80.5479L195.565 101.971L196.362 106.684L196.974 106.118L199.869 103.437L200.142 103.184L201.668 107.223L206.222 119.273L207.701 123.184L211.011 120.63L212.236 119.684L221 123.184L229 133L238.394 135L249.5 133L254.5 123.184L264.552 119.684L265.776 120.63L269.087 123.184L270.565 119.273L275.12 107.223L276.646 103.184L276.918 103.437L279.814 106.118L280.426 106.684L281.223 101.971L284.849 80.5479L285.874 74.4872L286.095 73.1844L288.986 80.07L289.874 82.1844V74.8232V73.824V71.8536V57.5955V53.2329V52.6844L293.874 55.5338L294.788 56.1844L293.874 52.7152L293.866 52.6844L293.196 50.1396L287.894 30L291.764 16V11.0693V6L287.764 9.11417L281.894 13.6844L264.552 25.6844L238.394 25.6844L213.894 23.5L194.894 13.6844ZM287.764 14.1835L284.351 16.8407L284.262 16.9097L284.17 16.9737L266.828 28.9737L265.801 29.6844H264.552L238.394 29.6844H238.216L238.039 29.6686L213.539 27.4842L212.756 27.4144L212.058 27.0538L193.058 17.2382L192.729 17.0682L192.437 16.8407L190.549 15.3708L190.818 17.083L194.508 28.7984L194.897 30.0324L194.489 31.2603L189.656 45.82L190.913 44.924V52.6844V62.3286L192.338 58.9353L194.637 72.517L199.072 98.7235L201.783 96.2129L203.883 101.77L209.533 116.718L209.792 116.518L211.6 115.123L213.72 115.97L222.484 119.47L223.446 119.854L224.101 120.657L231.211 129.381L238.458 130.924L246.837 129.415L250.936 121.369L251.666 119.936L253.185 119.407L263.236 115.907L265.281 115.195L266.995 116.518L267.255 116.718L272.904 101.77L275.005 96.2129L277.716 98.7235L282.151 72.517L284.449 58.9354L285.874 62.3286V52.6844V44.924L288.105 46.513L284.026 31.0184L283.751 29.9746L284.038 28.9342L287.764 15.4573V14.1835ZM218.42 77.3652L213.824 76.1337L213.939 73.8658L214.187 68.984L218.039 71.9927L220.241 73.712L228.313 80.016L218.42 77.3652ZM264.676 76.1337L260.08 77.3652L250.187 80.016L258.259 73.712L260.461 71.9926L264.313 68.984L264.561 73.8658L264.676 76.1337Z" fill="black"/>
<path d="M71.808 163.48H85.696V166.104L80.576 166.872L86.272 186.776L88.384 195.672L90.496 186.712L96.896 163.48H102.208L108.608 186.712L110.656 195.736L112.96 186.776L118.592 166.936L113.664 166.104V163.48H126.208V166.104L122.688 166.936L112.704 199.512H107.52L100.544 175.704L98.752 167.64L97.216 175.704L90.496 199.512H85.44L75.2 166.872L71.808 166.104V163.48Z" fill="black"/>
<path d="M246.808 188.48H260.696V191.104L255.576 191.872L261.272 211.776L263.384 220.672L265.496 211.712L271.896 188.48H277.208L283.608 211.712L285.656 220.736L287.96 211.776L293.592 191.936L288.664 191.104V188.48H301.208V191.104L297.688 191.936L287.704 224.512H282.52L275.544 200.704L273.752 192.64L272.216 200.704L265.496 224.512H260.44L250.2 191.872L246.808 191.104V188.48Z" fill="black"/>
<path d="M146.432 216.704C141.483 216.704 137.664 215.019 134.976 211.648C132.331 208.235 131.008 203.712 131.008 198.08C131.008 194.453 131.712 191.232 133.12 188.416C134.528 185.6 136.469 183.424 138.944 181.888C141.461 180.309 144.277 179.52 147.392 179.52C151.189 179.52 154.133 180.608 156.224 182.784C158.357 184.96 159.509 188.096 159.68 192.192C159.68 194.837 159.552 196.715 159.296 197.824H136.512C136.512 202.304 137.515 205.973 139.52 208.832C141.568 211.648 144.427 213.056 148.096 213.056C149.888 213.056 151.723 212.736 153.6 212.096C155.477 211.456 156.928 210.688 157.952 209.792L158.976 212.16C157.739 213.44 155.925 214.528 153.536 215.424C151.189 216.277 148.821 216.704 146.432 216.704ZM153.92 194.816C154.048 193.92 154.112 192.981 154.112 192C154.069 189.184 153.387 186.944 152.064 185.28C150.784 183.616 148.8 182.784 146.112 182.784C140.267 182.784 137.088 186.795 136.576 194.816H153.92Z" fill="black"/>
<path d="M171.136 207.312L176.256 206.928V178.704L171.328 177.616V174.736L179.456 173.712H179.584L180.8 174.736V175.76L180.672 180.624H180.8C180.885 180.539 181.44 179.899 182.464 178.704C183.531 177.467 185.088 176.293 187.136 175.184C189.227 174.075 191.317 173.52 193.408 173.52C194.091 173.52 194.731 173.605 195.328 173.776V179.408C195.157 179.28 194.773 179.152 194.176 179.024C193.621 178.896 193.024 178.832 192.384 178.832C189.952 178.832 187.883 179.195 186.176 179.92C184.469 180.645 182.891 181.541 181.44 182.608V206.864L189.952 207.376V210H171.136V207.312Z" fill="black"/>
<path d="M224.432 221.704C219.483 221.704 215.664 220.019 212.976 216.648C210.331 213.235 209.008 208.712 209.008 203.08C209.008 199.453 209.712 196.232 211.12 193.416C212.528 190.6 214.469 188.424 216.944 186.888C219.461 185.309 222.277 184.52 225.392 184.52C229.189 184.52 232.133 185.608 234.224 187.784C236.357 189.96 237.509 193.096 237.68 197.192C237.68 199.837 237.552 201.715 237.296 202.824H214.512C214.512 207.304 215.515 210.973 217.52 213.832C219.568 216.648 222.427 218.056 226.096 218.056C227.888 218.056 229.723 217.736 231.6 217.096C233.477 216.456 234.928 215.688 235.952 214.792L236.976 217.16C235.739 218.44 233.925 219.528 231.536 220.424C229.189 221.277 226.821 221.704 224.432 221.704ZM231.92 199.816C232.048 198.92 232.112 197.981 232.112 197C232.069 194.184 231.387 191.944 230.064 190.28C228.784 188.616 226.8 187.784 224.112 187.784C218.267 187.784 215.088 191.795 214.576 199.816H231.92Z" fill="black"/>
<path d="M311.88 190.016C311.88 186.304 312.648 183.04 314.184 180.224C315.763 177.408 317.811 175.253 320.328 173.76C322.888 172.267 325.555 171.52 328.328 171.52C333.704 171.52 337.672 173.269 340.232 176.768C342.835 180.267 344.136 184.747 344.136 190.208C344.136 193.92 343.347 197.184 341.768 200C340.232 202.816 338.184 204.971 335.624 206.464C333.107 207.957 330.461 208.704 327.688 208.704C322.312 208.704 318.323 206.955 315.72 203.456C313.16 199.957 311.88 195.477 311.88 190.016ZM328.008 205.376C331.293 205.376 333.832 204.117 335.624 201.6C337.416 199.083 338.312 195.413 338.312 190.592C338.312 185.984 337.48 182.208 335.816 179.264C334.152 176.32 331.571 174.848 328.072 174.848C324.787 174.848 322.227 176.107 320.392 178.624C318.6 181.141 317.704 184.811 317.704 189.632C317.704 194.283 318.536 198.08 320.2 201.024C321.907 203.925 324.509 205.376 328.008 205.376Z" fill="black"/>
<path d="M356.128 183.616L350.688 183.04V180.672L360.032 179.584H360.096L361.312 180.416V228.8L367.328 229.248V232H350.496V229.248L356.128 228.736V183.616Z" fill="black"/>
<path d="M384.448 165.32H377.984V162.76L384.448 161.544V158.408C384.448 155.848 385.109 153.501 386.432 151.368C387.755 149.192 389.461 147.464 391.552 146.184C393.685 144.904 395.904 144.264 398.208 144.264C399.573 144.264 400.768 144.435 401.792 144.776V150.024C401.451 149.768 400.747 149.512 399.68 149.256C398.656 149 397.461 148.872 396.096 148.872C393.835 148.872 392.192 149.469 391.168 150.664C390.144 151.859 389.632 153.885 389.632 156.744V161.544H398.912V165.32H389.632V193.8L396.928 194.248V197H378.816V194.248L384.448 193.736V165.32Z" fill="black"/>
</svg>
